<svg width="58" height="76" viewBox="0 0 58 76" fill="none" xmlns="http://www.w3.org/2000/svg">
<g id="Vector">
<path d="M37.8979 33.8146H35.2449C35.1922 33.8146 35.1658 33.7843 35.1658 33.7236L35.1884 27.1035L32.0951 17.6965C32.08 17.6358 32.1026 17.6055 32.1628 17.6055H34.7368C34.8121 17.6055 34.8573 17.6358 34.8723 17.6965L36.5771 23.964L38.3157 17.6965C38.3307 17.6358 38.3684 17.6055 38.4286 17.6055H41.0252C41.0854 17.6055 41.108 17.6358 41.0929 17.6965L37.9657 27.0125L37.9883 33.7236C37.9883 33.7843 37.9582 33.8146 37.8979 33.8146Z" fill="#FF9A02"/>
<path d="M45.0669 33.8146H42.4477C42.3875 33.8146 42.3574 33.7767 42.3574 33.7009L42.4025 17.6965C42.4025 17.6358 42.4326 17.6055 42.4929 17.6055H45.3153C45.3755 17.6055 45.4282 17.6358 45.4733 17.6965L47.5845 20.7677L49.6844 17.6965C49.7295 17.6358 49.786 17.6055 49.8537 17.6055H52.6874C52.7552 17.6055 52.789 17.6358 52.789 17.6965L52.8342 33.7009C52.8342 33.7767 52.8041 33.8146 52.7439 33.8146H50.1247C50.0645 33.8146 50.0344 33.7767 50.0344 33.7009L50.0118 21.8142L47.5845 25.3631L45.1798 21.8142L45.1572 33.7009C45.1572 33.7767 45.1271 33.8146 45.0669 33.8146Z" fill="#FF9A02"/>
<path d="M57.3775 35.0206C57.7925 39.3416 58 42.7217 58 45.1609C58 54.4301 55.994 61.8872 51.9821 67.5323C47.9702 73.1774 40.7418 76 30.297 76C24.4866 76 19.2815 74.4493 14.6816 71.348C10.1163 68.2467 6.51938 63.7689 3.89088 57.9147C1.29696 52.0257 0 45.0564 0 37.0069C0 29.8634 1.36613 23.4865 4.09839 17.8762C6.83065 12.2659 10.6178 7.89271 15.4597 4.75654C20.3363 1.58551 25.87 0 32.0608 0C36.2803 0 39.7734 0.331042 42.5403 0.993125C45.3417 1.6552 47.5033 2.43925 49.025 3.34525C50.5468 4.25126 51.9129 5.29665 53.1234 6.48143L47.4168 18.0853C44.5462 14.2522 39.4967 12.3356 32.2683 12.3356C28.8098 12.3356 25.6798 13.3636 22.8784 15.4195C20.0769 17.4755 17.8807 20.3503 16.2898 24.044C14.6989 27.7377 13.9034 31.9541 13.9034 36.6933C13.9034 42.4081 14.5778 47.3563 15.9267 51.5378C17.3101 55.6845 19.2469 58.8556 21.737 61.0509C24.2618 63.2114 27.1843 64.2916 30.5045 64.2916C35.7269 64.2916 39.4794 63.0546 41.7621 60.5805C44.0793 58.1064 45.2379 54.3604 45.2379 49.3425C45.2379 48.785 45.2033 47.8441 45.1342 46.5199H30.297V35.0206H57.3775Z" fill="#FF9A02"/>
</g>
</svg>
